# xmcd
#
# Track frame offsets:
# 150
# 16800
# 36422
# 53762
# 67604
# 83628
# 100224
# 119678
# 132683
# 146906
# 160456
# 178065
# 193745
# 205756
# 218760
# 233183
# 246362
# 261855
# 279732
# 292311
# 320273
#
# Disc length: 4729 seconds
#
#
# Revision: 1
# Processed by: cddbd v1.5.2PL0 Copyright (c) Steve Scherf et al.
# Submitted via: FreeRIP 2.951 
#
DISCID=4a127715
DTITLE=Kenny Rogers - The Best Of Kenny Rogers Disc 1
DYEAR=2005
DGENRE=Country
TTITLE0=Lucille
TTITLE1=Coward Of The County
TTITLE2=We`Ve Got Tonight  Feat. Sheena Easton
TTITLE3=All I Ever Need Is You  Feat. Dottie West
TTITLE4=Green Green Grass Of Home
TTITLE5=Don`t Fall In Love With A Dreamer  Feat. Kim Carnes
TTITLE6=Sweet Music Man
TTITLE7=We Love Each Other  Feat. Dottie West
TTITLE8=The Son Of Hickory Holler`s Tramp
TTITLE9=Every Time Two Fools Collide  Feat. Dottie West
TTITLE10=All My Live
TTITLE11=I Wasn`t Man Enough
TTITLE12=My World Begins And Ends With You
TTITLE13=You Are So Beautiful
TTITLE14=Love The World Away
TTITLE15=Together Again  Feat. Dottie West
TTITLE16=Let It Be Me  Feat. Dottie West
TTITLE17=You Were A Good Friend
TTITLE18=Reuben James
TTITLE19=Twentieth Century Fool
TTITLE20=
EXTD=
EXTT0=
EXTT1=
EXTT2=
EXTT3=
EXTT4=
EXTT5=
EXTT6=
EXTT7=
EXTT8=
EXTT9=
EXTT10=
EXTT11=
EXTT12=
EXTT13=
EXTT14=
EXTT15=
EXTT16=
EXTT17=
EXTT18=
EXTT19=
EXTT20=
PLAYORDER=
